<svg xmlns="http://www.w3.org/2000/svg" width="100" height="40" viewBox="0 0 100 40" fill="none">
  <path d="M14 8C14 6.34315 15.3431 5 17 5H29C30.6569 5 32 6.34315 32 8V32C32 33.6569 30.6569 35 29 35H17C15.3431 35 14 33.6569 14 32V8Z" fill="#0f172a"/>
  <path d="M34 8C34 6.34315 35.3431 5 37 5H49C50.6569 5 52 6.34315 52 8V14C52 15.6569 50.6569 17 49 17H37C35.3431 17 34 15.6569 34 14V8Z" fill="#38bdf8"/>
  <path d="M34 23C34 21.3431 35.3431 20 37 20H49C50.6569 20 52 21.3431 52 23V32C52 33.6569 50.6569 35 49 35H37C35.3431 35 34 33.6569 34 32V23Z" fill="#38bdf8"/>
  <path d="M57 10.4C57 10.2 57.06 10.04 57.18 9.92C57.3 9.8 57.46 9.74 57.66 9.74H59.58C59.78 9.74 59.94 9.8 60.06 9.92C60.18 10.04 60.24 10.2 60.24 10.4V22.28H66.96C67.16 22.28 67.32 22.34 67.44 22.46C67.56 22.58 67.62 22.74 67.62 22.94V24.86C67.62 25.06 67.56 25.22 67.44 25.34C67.32 25.46 67.16 25.52 66.96 25.52H57.66C57.46 25.52 57.3 25.46 57.18 25.34C57.06 25.22 57 25.06 57 24.86V10.4Z" fill="#0f172a"/>
  <path d="M70.6527 10.4C70.6527 10.2 70.7127 10.04 70.8327 9.92C70.9527 9.8 71.1127 9.74 71.3127 9.74H73.2327C73.4327 9.74 73.5927 9.8 73.7127 9.92C73.8327 10.04 73.8927 10.2 73.8927 10.4V24.86C73.8927 25.06 73.8327 25.22 73.7127 25.34C73.5927 25.46 73.4327 25.52 73.2327 25.52H71.3127C71.1127 25.52 70.9527 25.46 70.8327 25.34C70.7127 25.22 70.6527 25.06 70.6527 24.86V10.4Z" fill="#0f172a"/>
  <path d="M77.6264 10.4C77.6264 10.2 77.6864 10.04 77.8064 9.92C77.9264 9.8 78.0864 9.74 78.2864 9.74H89.9064C90.1064 9.74 90.2664 9.8 90.3864 9.92C90.5064 10.04 90.5664 10.2 90.5664 10.4V12.32C90.5664 12.52 90.5064 12.68 90.3864 12.8C90.2664 12.92 90.1064 12.98 89.9064 12.98H80.8664V16.1H88.3664C88.5664 16.1 88.7264 16.16 88.8464 16.28C88.9664 16.4 89.0264 16.56 89.0264 16.76V18.68C89.0264 18.88 88.9664 19.04 88.8464 19.16C88.7264 19.28 88.5664 19.34 88.3664 19.34H80.8664V22.28H89.9064C90.1064 22.28 90.2664 22.34 90.3864 22.46C90.5064 22.58 90.5664 22.74 90.5664 22.94V24.86C90.5664 25.06 90.5064 25.22 90.3864 25.34C90.2664 25.46 90.1064 25.52 89.9064 25.52H78.2864C78.0864 25.52 77.9264 25.46 77.8064 25.34C77.6864 25.22 77.6264 25.06 77.6264 24.86V10.4Z" fill="#0f172a"/>
</svg>